<svg width="512" height="512" viewBox="0 0 512 512" fill="none" xmlns="http://www.w3.org/2000/svg">
<path d="M506 256C506 394.071 394.071 506 256 506C117.929 506 6 394.071 6 256C6 117.929 117.929 6 256 6C394.071 6 506 117.929 506 256Z" fill="black"/>
<path d="M170.43 289.695V92.625H228.828V289.695C228.828 308.706 224.661 325.047 216.328 338.719C207.995 352.26 196.602 362.677 182.148 369.969C167.826 377.26 151.68 380.906 133.711 380.906C115.091 380.906 98.6198 377.781 84.2969 371.531C69.974 365.281 58.7109 355.711 50.5078 342.82C42.3047 329.799 38.2031 313.328 38.2031 293.406H96.9922C96.9922 303.823 98.4245 312.091 101.289 318.211C104.284 324.331 108.516 328.693 113.984 331.297C119.453 333.901 126.029 335.203 133.711 335.203C141.133 335.203 147.578 333.445 153.047 329.93C158.516 326.414 162.747 321.271 165.742 314.5C168.867 307.729 170.43 299.461 170.43 289.695Z" fill="white" fill-opacity="0.501961"/>
<path d="M366.719 252.195H293.672L293.281 211.961H354.609C365.417 211.961 374.271 210.594 381.172 207.859C388.073 204.995 393.216 200.893 396.602 195.555C400.117 190.086 401.875 183.445 401.875 175.633C401.875 166.779 400.182 159.617 396.797 154.148C393.542 148.68 388.398 144.708 381.367 142.234C374.466 139.76 365.547 138.523 354.609 138.523H313.984V377H255.391V92.625H354.609C371.146 92.625 385.924 94.1875 398.945 97.3125C412.096 100.438 423.229 105.19 432.344 111.57C441.458 117.951 448.424 126.023 453.242 135.789C458.06 145.424 460.469 156.883 460.469 170.164C460.469 181.883 457.799 192.69 452.461 202.586C447.253 212.482 438.984 220.555 427.656 226.805C416.458 233.055 401.81 236.505 383.711 237.156L366.719 252.195ZM364.18 377H277.656L300.508 331.297H364.18C374.466 331.297 382.865 329.669 389.375 326.414C395.885 323.029 400.703 318.471 403.828 312.742C406.953 307.013 408.516 300.438 408.516 293.016C408.516 284.682 407.083 277.456 404.219 271.336C401.484 265.216 397.057 260.529 390.938 257.273C384.818 253.888 376.745 252.195 366.719 252.195H310.273L310.664 211.961H380.977L394.453 227.781C411.771 227.521 425.703 230.581 436.25 236.961C446.927 243.211 454.674 251.349 459.492 261.375C464.44 271.401 466.914 282.143 466.914 293.602C466.914 311.831 462.943 327.195 455 339.695C447.057 352.065 435.404 361.375 420.039 367.625C404.805 373.875 386.185 377 364.18 377Z" fill="white"/>
<path d="M256 3C395.728 3 509 116.272 509 256C509 395.728 395.728 509 256 509C116.272 509 3 395.728 3 256C3 116.272 116.272 3 256 3Z" stroke="white" stroke-width="6"/>
</svg>
